<svg width="210mm" height="297mm" version="1.1" viewBox="0 0 210 297" xmlns="http://www.w3.org/2000/svg">
<g>
<g transform="matrix(.0242551 0 0 -.02388574 -41.093763 246.77858)" fill="#fff">
<path d="m6101 6118c-24-12-73-48-108-81l-63-60-53 22c-209 87-370 79-486-25-47-43-125-152-170-241l-21-43h-89c-75 0-93-3-122-23-49-32-76-95-96-225l-18-114-55-19c-120-42-173-102-172-196 0-45 9-73 46-150 25-52 46-105 46-119 0-13-17-54-37-91-78-140-40-259 111-352 32-20 37-28 32-50-4-14-9-64-13-112-8-120 8-147 151-246 63-44 71-53 91-109 48-134 85-159 235-157 96 2 108 0 140-22 81-56 129-70 235-70 87 0 107 3 155 26 31 14 73 41 94 59 44 39 43 26 6 233-28 159-54 224-134 342-65 95-186 323-186 351 0 7 18 34 40 59 42 49 50 86 31 139-9 23-8 25 32 31 86 15 119 49 133 134l7 42 43-7c61-9 88 0 138 46l44 40 16-25c21-32 61-33 118-4l41 21 31-37c26-30 40-38 77-42 24-3 61-1 81 5l36 10 7-44c7-49 53-98 103-109 59-13 66-31 66-183 1-207-33-311-142-434-33-37-66-83-72-104-23-67-2-185 52-301 27-57 71-78 168-78 155 0 242 83 270 258 7 42 15 77 17 77s20-7 41-16c151-63 261-26 325 110 29 61 65 90 126 101 115 21 156 108 115 244-19 64-13 96 31 159 87 127 113 226 81 317-22 67-57 108-141 171-41 29-77 60-82 66-4 7-8 67-8 134 0 119-1 122-35 189-57 111-143 157-323 173l-88 7-26 65c-15 36-36 81-48 100-27 43-87 98-122 111-42 16-152 10-238-13l-83-21-68 40c-91 53-124 63-203 63-46-1-79-7-110-22z"/>
<path d="m5923 3601c-79-57-120-195-93-312 7-30 32-92 56-137 39-75 177-305 194-325 4-4 33-1 66 8 91 24 173 5 275-65 32-22 61-40 63-40s30 41 62 92c32 50 104 153 159 229 56 75 109 155 118 178 57 141-34 325-181 367-88 26-154 8-279-76-41-27-79-50-84-50-6 0-43 32-84 70-84 80-105 90-179 90-43 0-61-6-93-29z"/>
</g>
</g>
</svg>
